<svg width="37" height="28" viewBox="0 0 37 28" fill="none" xmlns="http://www.w3.org/2000/svg">
<path d="M4.10348 28C3.12327 28 2.28385 27.657 1.58522 26.971C0.886596 26.285 0.537877 25.4613 0.539066 24.5V3.5C0.539066 2.5375 0.888379 1.71325 1.587 1.02725C2.28563 0.341253 3.12446 -0.0011637 4.10348 2.97114e-06H25.49C26.4702 2.97114e-06 27.3096 0.343003 28.0082 1.029C28.7069 1.715 29.0556 2.53867 29.0544 3.5V11.375L34.6684 5.8625C34.9654 5.57084 35.2921 5.49792 35.6486 5.64375C36.005 5.78959 36.1832 6.06667 36.1832 6.475V21.525C36.1832 21.9333 36.005 22.2104 35.6486 22.3563C35.2921 22.5021 34.9654 22.4292 34.6684 22.1375L29.0544 16.625V24.5C29.0544 25.4625 28.7051 26.2868 28.0065 26.9728C27.3078 27.6588 26.469 28.0012 25.49 28H4.10348ZM4.10348 24.5H25.49V3.5H4.10348V24.5ZM7.71246 21H21.881C22.2672 21 22.5422 20.8396 22.7062 20.5188C22.8701 20.1979 22.8327 19.8917 22.5939 19.6L18.272 14.0438C18.0938 13.8104 17.8562 13.6938 17.5592 13.6938C17.2621 13.6938 17.0245 13.8104 16.8463 14.0438L13.4601 18.375L11.4105 15.75C11.2323 15.5167 10.9947 15.4 10.6977 15.4C10.4006 15.4 10.163 15.5167 9.98477 15.75L6.99957 19.6C6.76194 19.8917 6.72452 20.1979 6.88729 20.5188C7.05007 20.8396 7.32512 21 7.71246 21Z" fill="#DADADA"/>
</svg>
