<svg width="37" height="32" viewBox="0 0 37 32" fill="none" xmlns="http://www.w3.org/2000/svg">
<path d="M7.90813 24.75H29.2946L22.6114 16L17.2647 23L13.2548 17.75L7.90813 24.75ZM4.34372 31.75C3.3635 31.75 2.52408 31.407 1.82546 30.721C1.12683 30.035 0.778112 29.2113 0.7793 28.25V7.25C0.7793 6.2875 1.12861 5.46325 1.82724 4.77725C2.52586 4.09125 3.36469 3.74883 4.34372 3.75H9.95767L13.2548 0.25H23.948L27.2451 3.75H32.8591C33.8393 3.75 34.6787 4.093 35.3773 4.779C36.0759 5.465 36.4247 6.28867 36.4235 7.25V28.25C36.4235 29.2125 36.0742 30.0367 35.3755 30.7227C34.6769 31.4087 33.8381 31.7512 32.8591 31.75H4.34372ZM32.8591 28.25V7.25H25.6411L22.3886 3.75H14.8142L11.5617 7.25H4.34372V28.25H32.8591Z" fill="#DADADA"/>
</svg>
